<?xml version="1.0" encoding="UTF-8"?>
<svg version="1.1" xmlns="http://www.w3.org/2000/svg" width="298" height="357">
<path d="M0 0 C0.77954041 0.36479965 1.55908081 0.7295993 2.36224365 1.10545349 C4.03418352 1.88937824 5.70370856 2.67847031 7.3710022 3.472229 C10.85943332 5.13290199 14.35936233 6.76863147 17.85868835 8.40618896 C19.63040742 9.23577441 21.40149393 10.06671211 23.17195129 10.89898682 C30.69519092 14.43467024 38.24949177 17.89691863 45.83370972 21.29971313 C47.68839264 22.13265205 49.54062326 22.97088154 51.39282227 23.80932617 C52.49553467 24.30408447 53.59824707 24.79884277 54.734375 25.30859375 C55.69061768 25.73865723 56.64686035 26.1687207 57.63208008 26.61181641 C59.80435371 27.64328223 59.80435371 27.64328223 61.90234375 27.51953125 C61.90234375 28.17953125 61.90234375 28.83953125 61.90234375 29.51953125 C62.45903748 29.69363022 63.0157312 29.86772919 63.58929443 30.04710388 C68.89624514 31.75406025 73.89858882 33.76338205 78.91796875 36.1796875 C79.64850464 36.52620361 80.37904053 36.87271973 81.13171387 37.22973633 C83.4742785 38.34229607 85.81332505 39.46203875 88.15234375 40.58203125 C89.76442666 41.34934307 91.37673256 42.11618657 92.98925781 42.88256836 C96.91905728 44.75155218 100.84617292 46.6260944 104.77246094 48.50244141 C107.82438134 49.95983485 110.87888033 51.41175076 113.93359375 52.86328125 C118.59210112 55.07732699 123.24823075 57.29626366 127.90234375 59.51953125 C128.03515625 62.37890625 128.03515625 62.37890625 127.90234375 65.51953125 C124.64307686 68.97051972 121.3489111 70.11535209 116.90234375 71.51953125 C116.91862272 78.6916555 116.97341886 85.86274627 117.05493164 93.03442383 C117.07812064 95.47380878 117.09250943 97.91329399 117.09790039 100.3527832 C117.10718281 103.860825 117.14816157 107.36728797 117.1953125 110.875 C117.18941353 112.50963448 117.18941353 112.50963448 117.18339539 114.17729187 C117.22931149 120.37964119 117.22931149 120.37964119 120.3840332 125.55981445 C121.21507568 126.206521 122.04611816 126.85322754 122.90234375 127.51953125 C124.80786115 133.23608345 125.43353925 141.16154266 122.890625 146.73828125 C120.79808806 149.3021103 119.03894024 150.47399909 115.90234375 151.51953125 C111.62853229 151.93570765 107.99821836 151.99599847 104.02734375 150.26953125 C100.54423154 147.4010859 99.05515955 145.64782126 98.43359375 141.05859375 C98.33883424 129.18996453 98.33883424 129.18996453 101.27734375 125.58203125 C103.90234375 123.51953125 103.90234375 123.51953125 105.90234375 123.51953125 C105.927642 117.14746953 105.94518871 110.77542071 105.95727539 104.40332031 C105.96231266 102.23437008 105.96914266 100.06542325 105.9777832 97.89648438 C105.98987526 94.78384562 105.99557803 91.67125165 106 88.55859375 C106.00516129 87.58459625 106.01032257 86.61059875 106.01564026 85.60708618 C106.01571579 84.70630341 106.01579132 83.80552063 106.01586914 82.87744141 C106.01808975 82.08246246 106.02031036 81.28748352 106.02259827 80.46841431 C106.024929 78.43863558 106.024929 78.43863558 104.90234375 76.51953125 C104.08556152 76.87781006 103.2687793 77.23608887 102.42724609 77.60522461 C99.37682441 78.93943219 96.32387422 80.26749014 93.26904297 81.59155273 C91.95093164 82.1643285 90.6338542 82.73948997 89.31787109 83.31713867 C87.41905484 84.15011673 85.51660623 84.9742605 83.61328125 85.796875 C82.47165527 86.29437256 81.3300293 86.79187012 80.15380859 87.30444336 C76.9910675 88.48637476 74.26598394 89.25087364 70.90234375 89.51953125 C68.23488068 88.24875302 65.93443131 86.9702302 63.46484375 85.39453125 C46.13035474 75.04109916 27.02545852 71.91978243 7.08984375 72.14453125 C6.34943848 72.14918396 5.6090332 72.15383667 4.84619141 72.15863037 C-22.36030053 72.35850584 -49.47867094 77.53925131 -70.09765625 96.51953125 C-69.5464209 96.29813477 -68.99518555 96.07673828 -68.42724609 95.84863281 C-47.99189728 87.75200523 -27.59434685 83.41947012 -5.5859375 83.31640625 C-4.61464401 83.31070618 -3.64335052 83.3050061 -2.6426239 83.2991333 C-0.59973212 83.28974997 1.44317434 83.28317612 3.48608398 83.27929688 C6.56456732 83.26961078 9.64237632 83.23853064 12.72070312 83.20703125 C29.28601784 83.11755907 46.31884757 84.01786397 60.52734375 93.70703125 C66.58470808 100.88022585 65.20682702 112.21487974 65.15234375 121.08203125 C65.16007813 122.34466797 65.1678125 123.60730469 65.17578125 124.90820312 C65.14100654 141.5565952 65.14100654 141.5565952 60.77734375 147.33203125 C54.72923486 151.93385323 49.47746471 153.97845118 41.90234375 154.51953125 C41.94875 153.61332031 41.99515625 152.70710937 42.04296875 151.7734375 C42.32317942 142.31632732 41.77287629 135.75868594 35.27734375 128.64453125 C22.35674386 120.50933873 4.61104937 122.22100974 -10.09765625 122.51953125 C-11.08685059 122.53741699 -12.07604492 122.55530273 -13.09521484 122.57373047 C-37.57136154 121.95205859 -37.57136154 121.95205859 -59.09765625 131.51953125 C-64.64007251 137.93706587 -65.26747073 145.3684363 -65.09765625 153.51953125 C-66.09765625 154.51953125 -66.09765625 154.51953125 -68.1015625 154.5390625 C-75.58704126 153.93336727 -81.80279361 152.38714835 -86.97265625 146.64453125 C-91.30191392 140.27797585 -91.37359054 134.53575739 -91.29296875 127.08984375 C-91.29013885 126.09951141 -91.28730896 125.10917908 -91.28439331 124.08883667 C-91.27324095 120.94060949 -91.24814532 117.79267176 -91.22265625 114.64453125 C-91.21262007 112.50391037 -91.20349533 110.36328501 -91.1953125 108.22265625 C-91.17331783 102.98818328 -91.13988958 97.75387795 -91.09765625 92.51953125 C-91.9592334 92.24568604 -92.82081055 91.97184082 -93.70849609 91.68969727 C-97.01213274 90.54905972 -100.13973343 89.23463004 -103.32421875 87.796875 C-104.51217041 87.26255859 -105.70012207 86.72824219 -106.92407227 86.17773438 C-108.19041538 85.6044945 -109.4566072 85.0309203 -110.72265625 84.45703125 C-113.32786414 83.27806852 -115.9334142 82.09986399 -118.5390625 80.921875 C-119.18409225 80.62985199 -119.82912201 80.33782898 -120.49369812 80.03695679 C-124.41724855 78.26456121 -128.35581185 76.53352003 -132.3125 74.8359375 C-133.22628418 74.43963135 -134.14006836 74.0433252 -135.08154297 73.63500977 C-136.75173612 72.91250337 -138.4263386 72.20007191 -140.10595703 71.49975586 C-144.61393308 69.53198854 -147.31867929 67.76539526 -150.09765625 63.51953125 C-147.81780579 58.79005423 -145.42371328 57.28979448 -140.72265625 55.08203125 C-139.69192993 54.59005249 -139.69192993 54.59005249 -138.64038086 54.08813477 C-137.04550239 53.32718635 -135.44786444 52.57200607 -133.84814453 51.82128906 C-130.8022026 50.37969822 -127.77576838 48.90142639 -124.75 47.41796875 C-110.69752779 40.5452304 -96.54240898 33.93218896 -82.28417969 27.49804688 C-74.29784384 23.89228328 -66.33003284 20.24989125 -58.3828125 16.55859375 C-57.47097198 16.1350914 -56.55913147 15.71158905 -55.61965942 15.2752533 C-51.15471283 13.20025829 -46.69140368 11.12179566 -42.22949219 9.0402832 C-37.52690091 6.84904483 -32.81489292 4.67903131 -28.09765625 2.51953125 C-27.40573181 2.20010559 -26.71380737 1.88067993 -26.00091553 1.55157471 C-24.09443126 0.67569455 -22.18166074 -0.18431881 -20.265625 -1.0390625 C-19.21012451 -1.51529053 -18.15462402 -1.99151855 -17.06713867 -2.48217773 C-10.38347846 -4.72911407 -6.02984403 -2.91116997 0 0 Z M-73.09765625 97.51953125 C-73.42765625 98.17953125 -73.75765625 98.83953125 -74.09765625 99.51953125 C-73.10765625 99.18953125 -72.11765625 98.85953125 -71.09765625 98.51953125 C-71.75765625 98.18953125 -72.41765625 97.85953125 -73.09765625 97.51953125 Z " fill="#01A0FE" transform="translate(158.09765625,14.48046875)"/>
<path d="M0 0 C0.89700912 -0.00367669 1.79401823 -0.00735338 2.71820945 -0.01114148 C5.72431077 -0.02215568 8.73037751 -0.02601828 11.73649597 -0.02983093 C13.89171457 -0.03609716 16.04693209 -0.04274411 18.20214844 -0.04974365 C25.2789383 -0.07076289 32.35572833 -0.08114226 39.43254089 -0.09111023 C41.86950377 -0.09515822 44.30646654 -0.09927515 46.74342918 -0.10346031 C58.1899459 -0.12250522 69.63645619 -0.1367392 81.0829857 -0.14507228 C94.29587957 -0.15485033 107.50860617 -0.18118774 120.72144109 -0.22157317 C130.93559659 -0.25172214 141.14970409 -0.2665399 151.36390322 -0.26985329 C157.46414183 -0.27220464 163.56420159 -0.28117683 169.66439247 -0.30631447 C175.4026148 -0.32957945 181.14054028 -0.33383459 186.87879753 -0.32355309 C188.98306388 -0.32305728 191.08734478 -0.32939084 193.19156647 -0.34310913 C196.06808921 -0.36081117 198.94354462 -0.35373001 201.82006836 -0.34057617 C202.64936365 -0.35154542 203.47865895 -0.36251466 204.3330844 -0.37381631 C211.08815837 -0.2994257 216.17944802 1.71712833 221.37785339 6.04170227 C221.92570496 6.67463196 222.47355652 7.30756165 223.03800964 7.95967102 C223.60390808 8.58486633 224.16980652 9.21006165 224.75285339 9.85420227 C226.52773781 12.87407808 226.6735845 15.7004336 227.10050964 19.14717102 C219.64517568 21.01242092 212.18966141 22.87691401 204.73200989 24.73287964 C185.82811571 29.43769343 166.94512613 34.20926396 148.10050964 39.14717102 C151.90623892 43.05144822 155.67410354 46.79495719 160.03800964 50.08467102 C161.1962323 50.96445618 161.1962323 50.96445618 162.37785339 51.86201477 C163.23056824 52.49816711 163.23056824 52.49816711 164.10050964 53.14717102 C160.27797451 57.83233264 156.30291027 61.96207174 151.66300964 65.83467102 C151.06246765 66.34014465 150.46192566 66.84561829 149.84318542 67.3664093 C148.57677859 68.42770082 147.30752785 69.4856073 146.03556824 70.54023743 C144.74745069 71.6099308 143.46388481 72.68512955 142.1849823 73.76582336 C130.30915201 83.79450481 118.50446997 92.41192874 102.28800964 92.45967102 C100.98218933 92.47642883 99.67636902 92.49318665 98.33097839 92.51045227 C89.13546416 92.04299456 81.28020657 87.93056981 73.28800964 83.70967102 C53.09061678 73.41720443 30.92872983 68.65205698 8.64738464 75.15498352 C-5.07904668 80.06657387 -16.96933203 87.54785659 -25.58308411 99.47920227 C-26.2347052 100.3048468 -26.2347052 100.3048468 -26.89949036 101.14717102 C-27.55949036 101.14717102 -28.21949036 101.14717102 -28.89949036 101.14717102 C-28.94601908 91.42799566 -28.98146327 81.70885918 -29.0031147 71.98959637 C-29.01351109 67.47559333 -29.02759377 62.96166702 -29.05036926 58.44770813 C-29.07224649 54.08401558 -29.08409008 49.72039641 -29.08924484 45.35665321 C-29.09291407 43.69945434 -29.10007844 42.04225906 -29.11095047 40.38509178 C-29.27501256 14.31954613 -29.27501256 14.31954613 -21.89949036 6.14717102 C-14.99479573 0.54234805 -8.60744873 -0.00189822 0 0 Z " fill="#0098FE" transform="translate(46.89949035644531,179.8528289794922)"/>
<path d="M0 0 C-4.73915453 19.4864615 -9.75138743 38.93741236 -16 58 C-17.1055189 57.06409496 -18.20935453 56.12620142 -19.3125 55.1875 C-19.92738281 54.66542969 -20.54226562 54.14335937 -21.17578125 53.60546875 C-22.85424679 52.12827531 -24.43882034 50.59960869 -26 49 C-29.48654476 50.4841373 -31.64191072 52.46214052 -34.25 55.1875 C-37.66070154 58.67596998 -41.14580219 61.95484129 -44.84765625 65.12890625 C-47.38052162 67.33079829 -49.84332522 69.60195826 -52.3125 71.875 C-56.88363015 76.04781591 -61.59454641 79.98983079 -66.4140625 83.87109375 C-68.6885142 85.74356532 -70.84464272 87.68122869 -73 89.6875 C-105.15874713 118.54939716 -141.68466164 133.77660083 -184.7578125 134.31640625 C-186.1560012 134.33702698 -187.55418438 134.35802459 -188.95236206 134.37937927 C-192.59854615 134.43407228 -196.24478144 134.48370986 -199.89105225 134.53222656 C-203.62533013 134.58283179 -207.35953542 134.63831229 -211.09375 134.69335938 C-218.39577152 134.8002935 -225.6978542 134.90187685 -233 135 C-233 134.34 -233 133.68 -233 133 C-233.56847656 132.97421875 -234.13695312 132.9484375 -234.72265625 132.921875 C-241.35005203 132.43505461 -246.0571662 131.1191326 -250.6953125 126.203125 C-256.38298569 119.11414103 -257.84451629 111.94114867 -257 103 C-254.21213565 87.93616154 -243.57244184 75.93453396 -231.74609375 66.8203125 C-217.1006707 57.11225113 -199.50325337 53.91750777 -182.30078125 57.15234375 C-171.99120827 59.79989089 -162.65855176 64.01515353 -153.37915039 69.1628418 C-140.36105411 76.28895566 -125.53994179 79.2011918 -110.89453125 75.94921875 C-104.24380297 73.76821069 -98.11882291 70.35749974 -92 67 C-91.02804688 66.47535156 -90.05609375 65.95070313 -89.0546875 65.41015625 C-80.95234225 60.65758658 -74.4652431 54.14214183 -67.7421875 47.66552734 C-62.89441995 43.03107244 -57.91740248 38.51227017 -52.6875 34.3125 C-49.65306938 31.7014783 -47.33446341 29.25410051 -45 26 C-45.33 25.01 -45.66 24.02 -46 23 C-46.66 23 -47.32 23 -48 23 C-48 22.34 -48 21.68 -48 21 C-48.928125 20.5978125 -48.928125 20.5978125 -49.875 20.1875 C-52 19 -52 19 -54 16 C-50.78158448 15.03447534 -47.56316487 14.06896432 -44.34472656 13.10351562 C-41.60700209 12.28221477 -38.8693818 11.46056786 -36.13183594 10.63867188 C-29.96455413 8.78733948 -23.79686566 6.93757292 -17.625 5.1015625 C-16.70428711 4.82715332 -15.78357422 4.55274414 -14.83496094 4.27001953 C-13.14595425 3.76689079 -11.45651822 3.26520053 -9.76660156 2.76513672 C-0.49585227 0 -0.49585227 0 0 0 Z " fill="#04A2BB" transform="translate(275,209)"/>
<path d="M0 0 C2.74091435 2.74091435 4.7565131 5.26953931 6 9 C6 11.31 6 13.62 6 16 C-20.07 16 -46.14 16 -73 16 C-71.82300885 5.40707965 -71.82300885 5.40707965 -69 2 C-64.44582935 -1.41562798 -60.96176616 -3.06771695 -55.30859375 -3.31640625 C-53.90456299 -3.37948975 -53.90456299 -3.37948975 -52.47216797 -3.44384766 C-50.97000732 -3.50258057 -50.97000732 -3.50258057 -49.4375 -3.5625 C-48.4077002 -3.6042334 -47.37790039 -3.6459668 -46.31689453 -3.68896484 C-7.13623375 -5.17376947 -7.13623375 -5.17376947 0 0 Z " fill="#019EFE" transform="translate(181,156)"/>
<path d="M0 0 C-4.73915453 19.4864615 -9.75138743 38.93741236 -16 58 C-17.1055189 57.06409496 -18.20935453 56.12620142 -19.3125 55.1875 C-19.92738281 54.66542969 -20.54226562 54.14335937 -21.17578125 53.60546875 C-22.85424679 52.12827531 -24.43882034 50.59960869 -26 49 C-29.48654476 50.4841373 -31.64191072 52.46214052 -34.25 55.1875 C-37.66070154 58.67596998 -41.14580219 61.95484129 -44.84765625 65.12890625 C-47.38052162 67.33079829 -49.84332522 69.60195826 -52.3125 71.875 C-56.8739448 76.0389745 -61.57500539 79.97280887 -66.3828125 83.84765625 C-68.82380272 85.85509746 -71.16626541 87.93224049 -73.5 90.0625 C-78.3688865 94.45421795 -83.64062168 98.23340888 -89 102 C-89 101.01 -89 100.02 -89 99 C-88.34 99 -87.68 99 -87 99 C-87 98.34 -87 97.68 -87 97 C-85.3203125 95.4921875 -85.3203125 95.4921875 -83.125 93.875 C-82.40570313 93.33617187 -81.68640625 92.79734375 -80.9453125 92.2421875 C-79 91 -79 91 -77 91 C-77 90.34 -77 89.68 -77 89 C-76.34 89 -75.68 89 -75 89 C-75 88.34 -75 87.68 -75 87 C-71.53846154 84 -71.53846154 84 -69 84 C-68.79375 83.4225 -68.5875 82.845 -68.375 82.25 C-66.49926262 79.18061157 -64.01405737 77.90685262 -61 76 C-60.4225 75.4225 -59.845 74.845 -59.25 74.25 C-58.8375 73.8375 -58.425 73.425 -58 73 C-57.34 73 -56.68 73 -56 73 C-56 72.01 -56 71.02 -56 70 C-55.01 70 -54.02 70 -53 70 C-52.67 69.34 -52.34 68.68 -52 68 C-50.0625 65.875 -50.0625 65.875 -48 64 C-47.34 64 -46.68 64 -46 64 C-46 63.34 -46 62.68 -46 62 C-44.57421875 60.59765625 -44.57421875 60.59765625 -42.6875 59.0625 C-40.82257269 57.53380697 -39.05575218 56.05873648 -37.39453125 54.30859375 C-36 53 -36 53 -34 53 C-34 52.34 -34 51.68 -34 51 C-33.34 51 -32.68 51 -32 51 C-31.67 50.01 -31.34 49.02 -31 48 C-28 46 -28 46 -24 46 C-24 46.99 -24 47.98 -24 49 C-22.515 49.495 -22.515 49.495 -21 50 C-21 50.66 -21 51.32 -21 52 C-19.03227765 51.81889415 -19.03227765 51.81889415 -17 51 C-15.92804509 49.15948331 -15.92804509 49.15948331 -15.375 46.875 C-15.13652344 46.05386719 -14.89804687 45.23273438 -14.65234375 44.38671875 C-14.43707031 43.59910156 -14.22179687 42.81148437 -14 42 C-13.649375 40.906875 -13.29875 39.81375 -12.9375 38.6875 C-11.84223416 34.37945438 -11.18764966 30.07024943 -10.5625 25.671875 C-10 23 -10 23 -8 20 C-7.37206321 18.08971632 -7.37206321 18.08971632 -6.9375 16.0625 C-6.70353516 15.05896484 -6.70353516 15.05896484 -6.46484375 14.03515625 C-6.31144531 13.36355469 -6.15804687 12.69195312 -6 12 C-5.77441406 11.29746094 -5.54882812 10.59492188 -5.31640625 9.87109375 C-5.21199219 9.25363281 -5.10757813 8.63617188 -5 8 C-5.99 7.01 -5.99 7.01 -7 6 C-9.48944032 6.39597756 -11.76657253 6.90075146 -14.1875 7.5625 C-14.89640381 7.74723877 -15.60530762 7.93197754 -16.33569336 8.12231445 C-22.52539505 9.77587354 -28.56581766 11.7964189 -34.59765625 13.94921875 C-38.07505557 15.02318019 -41.39268379 15.56221891 -45 16 C-46.33917261 16.30903983 -47.67653254 16.62942911 -49 17 C-48.01 19.475 -48.01 19.475 -47 22 C-45.68 22 -44.36 22 -43 22 C-42.2734375 24.21875 -42.2734375 24.21875 -42 27 C-43.4765625 29.28125 -43.4765625 29.28125 -45.625 31.5 C-46.37007813 32.28117187 -47.11515625 33.06234375 -47.8828125 33.8671875 C-48.93082031 34.92292969 -48.93082031 34.92292969 -50 36 C-51.2375 37.299375 -51.2375 37.299375 -52.5 38.625 C-62.36842105 48 -62.36842105 48 -65 48 C-65 48.66 -65 49.32 -65 50 C-66.54888502 51.41706502 -68.16761534 52.75809496 -69.8125 54.0625 C-70.81796875 54.86300781 -71.8234375 55.66351563 -72.859375 56.48828125 C-73.38208984 56.90287598 -73.90480469 57.3174707 -74.44335938 57.74462891 C-75.92755334 58.94157454 -77.37889618 60.17891814 -78.828125 61.41796875 C-83.83920893 65.69170748 -88.59412227 69.14099243 -94.59375 71.875 C-97.04812579 73.02250037 -99.30582118 74.3521388 -101.625 75.75 C-105.85201146 78.1398298 -109.17378406 78.67825227 -114 79 C-114.70769531 79.18691406 -115.41539062 79.37382812 -116.14453125 79.56640625 C-120.32175146 80.20070371 -124.25770597 79.6605021 -128.4375 79.1875 C-129.27087891 79.10435547 -130.10425781 79.02121094 -130.96289062 78.93554688 C-135.55457571 78.43826557 -139.65797441 77.6732684 -144 76 C-143.505 75.01 -143.505 75.01 -143 74 C-141.515 74.4640625 -141.515 74.4640625 -140 74.9375 C-122.14294961 79.98327977 -107.67931712 75.60350167 -92 67 C-91.02804688 66.47535156 -90.05609375 65.95070313 -89.0546875 65.41015625 C-80.95234225 60.65758658 -74.4652431 54.14214183 -67.7421875 47.66552734 C-62.89441995 43.03107244 -57.91740248 38.51227017 -52.6875 34.3125 C-49.65306938 31.7014783 -47.33446341 29.25410051 -45 26 C-45.495 24.515 -45.495 24.515 -46 23 C-46.66 23 -47.32 23 -48 23 C-48 22.34 -48 21.68 -48 21 C-48.61875 20.731875 -49.2375 20.46375 -49.875 20.1875 C-52 19 -52 19 -54 16 C-50.78158448 15.03447534 -47.56316487 14.06896432 -44.34472656 13.10351562 C-41.60700209 12.28221477 -38.8693818 11.46056786 -36.13183594 10.63867188 C-29.96455413 8.78733948 -23.79686566 6.93757292 -17.625 5.1015625 C-16.70428711 4.82715332 -15.78357422 4.55274414 -14.83496094 4.27001953 C-13.14595425 3.76689079 -11.45651822 3.26520053 -9.76660156 2.76513672 C-0.49585227 0 -0.49585227 0 0 0 Z " fill="#11BBAD" transform="translate(275,209)"/>
<path d="M0 0 C4.04339123 -0.30401438 5.73871861 0.00075986 8.953125 2.53125 C13.33169393 8.236658 12.7353778 15.32177816 12.015625 22.21875 C10.67732808 25.15370231 9.58080964 26.13080901 7.015625 28.21875 C2.02017047 29.88390151 -2.99275632 30.08467117 -7.859375 27.96875 C-11.34248721 25.10030465 -12.8315592 23.34704001 -13.453125 18.7578125 C-13.54793988 6.8822483 -13.54793988 6.8822483 -10.859375 3.34375 C-7.0377644 0.51908129 -4.5571447 0.50236241 0 0 Z " fill="#F49845" transform="translate(269.984375,136.78125)"/>
<path d="M0 0 C-2.7050187 -0.49182158 -5.30053406 -1.08952078 -7.9375 -1.875 C-12.87969451 -3.33569304 -17.94362019 -4.28174144 -22.98828125 -5.31640625 C-26 -6 -26 -6 -28 -7 C-40.52369866 -7.62256537 -50.62922002 -6.52417855 -62 -1 C-63.0725 -0.505 -64.145 -0.01 -65.25 0.5 C-70.25938278 3.23239061 -74.03720291 6.9428506 -78 11 C-78.60585937 11.57234375 -79.21171875 12.1446875 -79.8359375 12.734375 C-80.46757813 13.33765625 -81.09921875 13.9409375 -81.75 14.5625 C-82.34296875 15.12066406 -82.9359375 15.67882812 -83.546875 16.25390625 C-85.16366365 18.19666036 -85.4631306 19.56917464 -86 22 C-86.66 22.66 -87.32 23.32 -88 24 C-88.7014144 25.65234381 -89.36433809 27.32126352 -90 29 C-90.36480469 29.77859375 -90.72960937 30.5571875 -91.10546875 31.359375 C-94.29963707 38.41652666 -94.45705311 43.42069021 -92.125 50.75 C-90.98284918 53.1093944 -90.98284918 53.1093944 -89.375 55.6875 C-88 58 -88 58 -88 60 C-87.01 60 -86.02 60 -85 60 C-84.566875 60.474375 -84.13375 60.94875 -83.6875 61.4375 C-81.3293094 63.62100982 -79.12597439 63.65266951 -76 64 C-76 64.66 -76 65.32 -76 66 C-42.835 66.495 -42.835 66.495 -9 67 C-9 67.33 -9 67.66 -9 68 C-29.79 68.33 -50.58 68.66 -72 69 C-72 68.34 -72 67.68 -72 67 C-72.56847656 66.97421875 -73.13695313 66.9484375 -73.72265625 66.921875 C-80.35005203 66.43505461 -85.0571662 65.1191326 -89.6953125 60.203125 C-95.38298569 53.11414103 -96.84451629 45.94114867 -96 37 C-93.21213565 21.93616154 -82.57244184 9.93453396 -70.74609375 0.8203125 C-52.06678566 -11.56170395 -18.53474428 -16.24830601 0 0 Z " fill="#098BDB" transform="translate(114,275)"/>
<path d="M0 0 C1.43158835 4.54759578 0.10116586 8.16773998 -1.203125 12.60546875 C-1.44158142 13.44410965 -1.68003784 14.28275055 -1.92572021 15.14680481 C-2.69129704 17.82976566 -3.47068153 20.50850249 -4.25 23.1875 C-4.75997357 24.97175992 -5.26909749 26.75626291 -5.77734375 28.54101562 C-8.03277218 36.41799216 -10.35545956 44.2433874 -13 52 C-20.09821429 45.97321429 -20.09821429 45.97321429 -23 43 C-26.48654476 44.4841373 -28.64191072 46.46214052 -31.25 49.1875 C-34.66070154 52.67596998 -38.14580219 55.95484129 -41.84765625 59.12890625 C-44.38052162 61.33079829 -46.84332522 63.60195826 -49.3125 65.875 C-53.8739448 70.0389745 -58.57500539 73.97280887 -63.3828125 77.84765625 C-65.82380272 79.85509746 -68.16626541 81.93224049 -70.5 84.0625 C-75.3688865 88.45421795 -80.64062168 92.23340888 -86 96 C-86 95.01 -86 94.02 -86 93 C-85.34 93 -84.68 93 -84 93 C-84 92.34 -84 91.68 -84 91 C-82.3203125 89.4921875 -82.3203125 89.4921875 -80.125 87.875 C-79.40570313 87.33617187 -78.68640625 86.79734375 -77.9453125 86.2421875 C-76 85 -76 85 -74 85 C-74 84.34 -74 83.68 -74 83 C-73.34 83 -72.68 83 -72 83 C-72 82.34 -72 81.68 -72 81 C-68.53846154 78 -68.53846154 78 -66 78 C-65.79375 77.4225 -65.5875 76.845 -65.375 76.25 C-63.49926262 73.18061157 -61.01405737 71.90685262 -58 70 C-57.4225 69.4225 -56.845 68.845 -56.25 68.25 C-55.8375 67.8375 -55.425 67.425 -55 67 C-54.34 67 -53.68 67 -53 67 C-53 66.01 -53 65.02 -53 64 C-52.01 64 -51.02 64 -50 64 C-49.505 63.01 -49.505 63.01 -49 62 C-47.0625 59.875 -47.0625 59.875 -45 58 C-44.34 58 -43.68 58 -43 58 C-43 57.34 -43 56.68 -43 56 C-41.57421875 54.59765625 -41.57421875 54.59765625 -39.6875 53.0625 C-37.82257269 51.53380697 -36.05575218 50.05873648 -34.39453125 48.30859375 C-33 47 -33 47 -31 47 C-31 46.34 -31 45.68 -31 45 C-30.34 45 -29.68 45 -29 45 C-28.67 44.01 -28.34 43.02 -28 42 C-25 40 -25 40 -21 40 C-21 40.99 -21 41.98 -21 43 C-19.515 43.495 -19.515 43.495 -18 44 C-18 44.66 -18 45.32 -18 46 C-16.03227765 45.81889415 -16.03227765 45.81889415 -14 45 C-12.92804509 43.15948331 -12.92804509 43.15948331 -12.375 40.875 C-12.01728516 39.64330078 -12.01728516 39.64330078 -11.65234375 38.38671875 C-11.43707031 37.59910156 -11.22179687 36.81148437 -11 36 C-10.649375 34.906875 -10.29875 33.81375 -9.9375 32.6875 C-8.84223416 28.37945438 -8.18764966 24.07024943 -7.5625 19.671875 C-7 17 -7 17 -5 14 C-4.51487055 12.02714025 -4.03158482 10.0536991 -3.57421875 8.07421875 C-2.77068098 5.17164354 -1.44654059 2.63007381 0 0 Z " fill="#15ABA5" transform="translate(272,215)"/>
<path d="M0 0 C1.9666008 -0.002062 1.9666008 -0.002062 3.97293091 -0.00416565 C5.4187777 -0.00062693 6.86462425 0.00300787 8.31047058 0.00672913 C9.83828225 0.0070113 11.36609405 0.00685266 12.89390564 0.00628662 C17.03605134 0.00599985 21.17816805 0.01187727 25.32030702 0.01886058 C29.65114841 0.02511401 33.98199048 0.02569949 38.31283569 0.02688599 C46.51147201 0.02999343 54.71009499 0.03819892 62.90872544 0.04823548 C72.24360754 0.05941482 81.57849028 0.06491166 90.9133774 0.06993091 C110.11370183 0.08038201 129.31401385 0.09797011 148.514328 0.12025452 C148.514328 0.45025452 148.514328 0.78025452 148.514328 1.12025452 C147.73703622 1.12448646 146.95974443 1.1287184 146.15889835 1.13307858 C127.27332197 1.23624078 108.38778422 1.34485656 89.50227451 1.45959377 C80.36950542 1.51494662 71.23673243 1.56843194 62.10392761 1.61756897 C54.14672473 1.66038562 46.18955085 1.70665714 38.23239273 1.75713307 C34.01648517 1.78375438 29.80058344 1.80860787 25.58464241 1.82932854 C21.62107797 1.84886329 17.65756884 1.87299737 13.69405365 1.90074539 C12.23511951 1.91013265 10.77617321 1.91780186 9.31722069 1.92367363 C7.33383181 1.93190638 5.35047369 1.94677201 3.36712646 1.96203613 C2.25452233 1.96848868 1.1419182 1.97494123 -0.00440121 1.98158932 C-2.42813021 1.84052932 -2.42813021 1.84052932 -3.485672 3.12025452 C-5.17176166 3.19230963 -6.86067859 3.20411519 -8.548172 3.18275452 C-9.46727356 3.17373108 -10.38637512 3.16470764 -11.33332825 3.15541077 C-12.04360168 3.1438092 -12.75387512 3.13220764 -13.485672 3.12025452 C-9.79839105 -0.56702643 -4.97696804 -0.00402993 0 0 Z " fill="#038BF9" transform="translate(44.48567199707031,179.87974548339844)"/>
<path d="M0 0 C0.495 0.99 0.495 0.99 1 2 C-6.39461299 11.39315705 -15.61294215 18.21338289 -26 24 C-26.8971875 24.53753906 -27.794375 25.07507813 -28.71875 25.62890625 C-34.77180465 29.15702097 -40.08786626 31.02097764 -47 32 C-48.08861328 32.29390625 -48.08861328 32.29390625 -49.19921875 32.59375 C-53.35158241 33.19604543 -57.28582639 32.65731988 -61.4375 32.1875 C-62.27087891 32.10435547 -63.10425781 32.02121094 -63.96289062 31.93554688 C-68.55457571 31.43826557 -72.65797441 30.6732684 -77 29 C-76.67 28.34 -76.34 27.68 -76 27 C-75.01 27.309375 -74.02 27.61875 -73 27.9375 C-55.15268269 32.98052954 -40.66835103 28.61411303 -25 20 C-24.01644531 19.46375 -23.03289062 18.9275 -22.01953125 18.375 C-13.67192231 13.44288246 -6.91771435 6.71573729 0 0 Z " fill="#10ABAE" transform="translate(208,256)"/>
<path d="M0 0 C0.33 0 0.66 0 1 0 C1.33 26.07 1.66 52.14 2 79 C6.52158806 74.87593941 6.52158806 74.87593941 10 70 C10.99 70.33 11.98 70.66 13 71 C12.38511719 71.60328125 11.77023438 72.2065625 11.13671875 72.828125 C10.32847656 73.62734375 9.52023438 74.4265625 8.6875 75.25 C7.48673828 76.43335938 7.48673828 76.43335938 6.26171875 77.640625 C3.99268674 79.90076404 3.99268674 79.90076404 2.33203125 82.296875 C1.89246094 82.85890625 1.45289063 83.4209375 1 84 C0.34 84 -0.32 84 -1 84 C-1.02322166 74.22900141 -1.04096505 64.45800945 -1.05181217 54.68698883 C-1.05701955 50.14938885 -1.06407808 45.61180782 -1.07543945 41.07421875 C-1.08634477 36.69109411 -1.09229298 32.30798763 -1.09487724 27.92485046 C-1.09671775 26.2568076 -1.10031172 24.58876567 -1.10573006 22.92073059 C-1.11304207 20.57538746 -1.11398669 18.23011841 -1.11352539 15.88476562 C-1.11712067 15.2028717 -1.12071594 14.52097778 -1.12442017 13.81842041 C-1.1145015 9.1250386 -0.65177952 4.63765656 0 0 Z " fill="#0680F8" transform="translate(19,197)"/>
<path d="M0 0 C0.33 0 0.66 0 1 0 C1.12117188 0.65226562 1.24234375 1.30453125 1.3671875 1.9765625 C2.71146984 8.98751191 4.25012964 14.86384851 8 21 C8 21.66 8 22.32 8 23 C8.99 23 9.98 23 11 23 C11.433125 23.474375 11.86625 23.94875 12.3125 24.4375 C14.6706906 26.62100982 16.87402561 26.65266951 20 27 C20 27.66 20 28.32 20 29 C53.165 29.495 53.165 29.495 87 30 C87 30.33 87 30.66 87 31 C66.21 31.33 45.42 31.66 24 32 C24 31.34 24 30.68 24 30 C23.43152344 29.97421875 22.86304687 29.9484375 22.27734375 29.921875 C15.64994797 29.43505461 10.9428338 28.1191326 6.3046875 23.203125 C0.45870418 15.91682695 -0.32948039 9.09731962 0 0 Z " fill="#1D90CA" transform="translate(18,312)"/>
<path d="M0 0 C1.32 0.33 2.64 0.66 4 1 C-17.60526781 16.05730257 -43.62056709 31.48276051 -70.9375 31.0625 C-71.70964844 31.05347656 -72.48179688 31.04445313 -73.27734375 31.03515625 C-73.84582031 31.02355469 -74.41429688 31.01195312 -75 31 C-75 30.67 -75 30.34 -75 30 C-73.96939453 29.80083984 -73.96939453 29.80083984 -72.91796875 29.59765625 C-71.56638672 29.33275391 -71.56638672 29.33275391 -70.1875 29.0625 C-69.29417969 28.88847656 -68.40085937 28.71445312 -67.48046875 28.53515625 C-64.88602829 28.02258847 -64.88602829 28.02258847 -62 27 C-60.41952217 26.82592639 -58.83545251 26.68313226 -57.25 26.5625 C-54.07999355 26.27599796 -51.16810351 25.87282619 -48.125 24.9375 C-45 24 -45 24 -41 24 C-41 23.34 -41 22.68 -41 22 C-40.30777344 21.8040625 -39.61554688 21.608125 -38.90234375 21.40625 C-28.9509718 18.36446042 -20.11255536 13.69516059 -11.234375 8.328125 C-8.8939239 6.93694777 -6.54886009 5.94671946 -4 5 C-4 4.34 -4 3.68 -4 3 C-2.68 2.67 -1.36 2.34 0 2 C0 1.34 0 0.68 0 0 Z " fill="#199CAA" transform="translate(181,311)"/>
<path d="M0 0 C0.66 0.33 1.32 0.66 2 1 C1.14535156 1.89203125 0.29070313 2.7840625 -0.58984375 3.703125 C-1.70611157 4.88505563 -2.82197601 6.06736731 -3.9375 7.25 C-4.50146484 7.83652344 -5.06542969 8.42304688 -5.64648438 9.02734375 C-6.45375977 9.88779297 -6.45375977 9.88779297 -7.27734375 10.765625 C-7.77484131 11.28930664 -8.27233887 11.81298828 -8.78491211 12.35253906 C-10.16359736 14.22181133 -10.47055579 15.76172698 -11 18 C-11.66 18.66 -12.32 19.32 -13 20 C-13.71286072 21.64743796 -14.37370631 23.31774602 -15 25 C-16.33333333 28.33333333 -17.66666667 31.66666667 -19 35 C-19.33 35 -19.66 35 -20 35 C-19.28763789 20.27784966 -10.34544268 9.77943062 0 0 Z " fill="#0E85D7" transform="translate(39,279)"/>
<path d="M0 0 C0.33 0 0.66 0 1 0 C1.02505615 0.76554199 1.0501123 1.53108398 1.07592773 2.31982422 C1.19303454 5.83833931 1.31523405 9.35666055 1.4375 12.875 C1.47681641 14.07898438 1.51613281 15.28296875 1.55664062 16.5234375 C1.77552042 22.71941949 2.09626038 28.84749867 2.84375 35.00390625 C3.03735053 37.47715306 2.71155745 39.62814183 2 42 C2.66 42.33 3.32 42.66 4 43 C2.68 43 1.36 43 0 43 C0 28.81 0 14.62 0 0 Z " fill="#36A1E3" transform="translate(264,95)"/>
<path d="M0 0 C0.94617188 0.2165625 1.89234375 0.433125 2.8671875 0.65625 C13.35378193 2.91199366 23.29731094 3.33445903 34 3 C27.77009056 6.4610608 22.4206152 5.96359156 15.5625 5.1875 C14.31243164 5.0627832 14.31243164 5.0627832 13.03710938 4.93554688 C8.44542429 4.43826557 4.34202559 3.6732684 0 2 C0 1.34 0 0.68 0 0 Z " fill="#109DB4" transform="translate(131,283)"/>
<path d="M0 0 C0.33 0 0.66 0 1 0 C1.02685938 2.14576637 1.04633088 4.29162645 1.0625 6.4375 C1.07410156 7.63246094 1.08570312 8.82742187 1.09765625 10.05859375 C1 13 1 13 0 14 C-6.59987059 14.06432622 -12.52530378 12.78797519 -18 9 C-18.33 8.34 -18.66 7.68 -19 7 C-18.30519531 7.29648438 -17.61039062 7.59296875 -16.89453125 7.8984375 C-13.85340716 9.05578837 -10.84912937 9.86065004 -7.6875 10.625 C-6.61886719 10.88539063 -5.55023438 11.14578125 -4.44921875 11.4140625 C-3.23685547 11.70410156 -3.23685547 11.70410156 -2 12 C-1.90912109 10.95199219 -1.90912109 10.95199219 -1.81640625 9.8828125 C-1.73261719 8.97273437 -1.64882812 8.06265625 -1.5625 7.125 C-1.48128906 6.22007812 -1.40007812 5.31515625 -1.31640625 4.3828125 C-1 2 -1 2 0 0 Z " fill="#0A8FFA" transform="translate(92,155)"/>
<path d="M0 0 C0.33 0 0.66 0 1 0 C1.03738281 0.80824219 1.07476562 1.61648437 1.11328125 2.44921875 C1.17902344 3.51785156 1.24476563 4.58648437 1.3125 5.6875 C1.37050781 6.74324219 1.42851562 7.79898438 1.48828125 8.88671875 C2.04285672 12.26073899 3.1285588 14.17600004 5 17 C5.33 17.99 5.66 18.98 6 20 C9.63 20.33 13.26 20.66 17 21 C17 21.33 17 21.66 17 22 C7.33333333 22.56862745 7.33333333 22.56862745 3 19 C0.38156225 16.37525276 0.00849362 15.10645338 -0.29296875 11.328125 C-0.27316751 9.96843965 -0.23759202 8.6089066 -0.1875 7.25 C-0.17396484 6.55261719 -0.16042969 5.85523438 -0.14648438 5.13671875 C-0.1112945 3.42414459 -0.05749155 1.71197059 0 0 Z " fill="#BF976A" transform="translate(257,144)"/>
<path d="M0 0 C0.33 0 0.66 0 1 0 C1 3.96 1 7.92 1 12 C1.66 12 2.32 12 3 12 C3.26554687 11.41734375 3.53109375 10.8346875 3.8046875 10.234375 C5.03302996 7.93825772 6.40314939 6.19643982 8.125 4.25 C8.66382813 3.63640625 9.20265625 3.0228125 9.7578125 2.390625 C10.37269531 1.70226562 10.37269531 1.70226562 11 1 C11.99 1.33 12.98 1.66 14 2 C13.38511719 2.60328125 12.77023438 3.2065625 12.13671875 3.828125 C11.32847656 4.62734375 10.52023438 5.4265625 9.6875 6.25 C8.88699219 7.03890625 8.08648437 7.8278125 7.26171875 8.640625 C4.99268674 10.90076404 4.99268674 10.90076404 3.33203125 13.296875 C2.89246094 13.85890625 2.45289063 14.4209375 2 15 C1.34 15 0.68 15 0 15 C0 10.05 0 5.1 0 0 Z " fill="#0F81E9" transform="translate(18,266)"/>
<path d="M0 0 C-3.34079197 1.11359732 -3.7140298 0.95858111 -6.8125 -0.25 C-13.05442208 -2.49254485 -19.50917969 -3.69814273 -26 -5 C-26 -5.33 -26 -5.66 -26 -6 C-17.18178332 -8.62163199 -7.85011666 -3.81845181 0 0 Z " fill="#099AD4" transform="translate(114,274)"/>
<path d="M0 0 C-5.04683968 2.76061981 -10.5794753 3.80922632 -16.125 5.1875 C-17.23488281 5.47302734 -18.34476563 5.75855469 -19.48828125 6.05273438 C-20.54660156 6.31763672 -21.60492188 6.58253906 -22.6953125 6.85546875 C-24.1496167 7.22128052 -24.1496167 7.22128052 -25.63330078 7.59448242 C-28 8 -28 8 -30 7 C-26.75863944 4.83909296 -24.40707678 4.26401792 -20.625 3.4375 C-18.94277344 3.06431641 -18.94277344 3.06431641 -17.2265625 2.68359375 C-15.22376857 2.259273 -13.21886255 1.84464773 -11.2109375 1.4453125 C-9.02240127 1.03340082 -9.02240127 1.03340082 -7 0.4375 C-4.62784655 -0.08140857 -2.42075428 -0.06724317 0 0 Z " fill="#0FA2ED" transform="translate(238,207)"/>
<path d="M0 0 C0 3 0 3 -2 5.1875 C-2.66 5.785625 -3.32 6.38375 -4 7 C-4.66 6.67 -5.32 6.34 -6 6 C-4.02 4.02 -2.04 2.04 0 0 Z M-9 7 C-8.01 7.33 -7.02 7.66 -6 8 C-7.375 9.5 -7.375 9.5 -9 11 C-9.66 11 -10.32 11 -11 11 C-11 11.66 -11 12.32 -11 13 C-11.66 12.67 -12.32 12.34 -13 12 C-11.25 8.125 -11.25 8.125 -9 7 Z " fill="#0DBAAA" transform="translate(221,246)"/>
<path d="M0 0 C0.66 0.66 1.32 1.32 2 2 C0.7625 2.144375 -0.475 2.28875 -1.75 2.4375 C-4.03547854 2.71611841 -6.14509238 3.03818221 -8.375 3.625 C-10 4 -10 4 -12 3 C-7.81168576 0.60667758 -4.84749424 -0.55085162 0 0 Z " fill="#0B9BF9" transform="translate(150,11)"/>
<path d="M0 0 C-0.33 1.98 -0.66 3.96 -1 6 C-1.33 5.01 -1.66 4.02 -2 3 C-4.64 3.33 -7.28 3.66 -10 4 C-6.86268382 1.90845588 -3.85464592 0 0 0 Z " fill="#1FABAE" transform="translate(275,209)"/>
<path d="M0 0 C2 1 2 1 2 1 Z " fill="#18AFE7" transform="translate(220,213)"/>
<path d="M0 0 C2 1 2 1 2 1 Z " fill="#0F8FF2" transform="translate(26,63)"/>
<path d="" fill="#70B1B4" transform="translate(0,0)"/>
<path d="" fill="#3F96C6" transform="translate(0,0)"/>
<path d="" fill="#59AEAE" transform="translate(0,0)"/>
<path d="" fill="#69A3A8" transform="translate(0,0)"/>
<path d="" fill="#218BD8" transform="translate(0,0)"/>
<path d="" fill="#2188DA" transform="translate(0,0)"/>
<path d="" fill="#228ADF" transform="translate(0,0)"/>
<path d="" fill="#148FEC" transform="translate(0,0)"/>
<path d="" fill="#1EB8C9" transform="translate(0,0)"/>
<path d="" fill="#1092F5" transform="translate(0,0)"/>
<path d="" fill="#25B8C8" transform="translate(0,0)"/>
<path d="" fill="#24B5D1" transform="translate(0,0)"/>
<path d="" fill="#24B5BF" transform="translate(0,0)"/>
<path d="" fill="#21AEDC" transform="translate(0,0)"/>
<path d="" fill="#62A1B5" transform="translate(0,0)"/>
<path d="" fill="#2DA6E9" transform="translate(0,0)"/>
<path d="" fill="#23A9EE" transform="translate(0,0)"/>
<path d="" fill="#1DA8F6" transform="translate(0,0)"/>
<path d="" fill="#69A0B1" transform="translate(0,0)"/>
<path d="" fill="#0E98FC" transform="translate(0,0)"/>
<path d="" fill="#0DA4FD" transform="translate(0,0)"/>
<path d="" fill="#0DA0FD" transform="translate(0,0)"/>
<path d="" fill="#139AFD" transform="translate(0,0)"/>
<path d="" fill="#A6A08E" transform="translate(0,0)"/>
<path d="" fill="#A69E8D" transform="translate(0,0)"/>
<path d="" fill="#A99F85" transform="translate(0,0)"/>
<path d="" fill="#11A5FD" transform="translate(0,0)"/>
<path d="" fill="#0EA0FE" transform="translate(0,0)"/>
<path d="" fill="#0CA1FF" transform="translate(0,0)"/>
<path d="" fill="#889FA8" transform="translate(0,0)"/>
<path d="" fill="#1FA8F5" transform="translate(0,0)"/>
<path d="" fill="#3DA0DF" transform="translate(0,0)"/>
<path d="" fill="#0E95F6" transform="translate(0,0)"/>
<path d="" fill="#1CAAF9" transform="translate(0,0)"/>
<path d="" fill="#13A6FE" transform="translate(0,0)"/>
<path d="" fill="#19A7FB" transform="translate(0,0)"/>
<path d="" fill="#19A6FA" transform="translate(0,0)"/>
<path d="" fill="#0FA7FF" transform="translate(0,0)"/>
<path d="" fill="#1493F9" transform="translate(0,0)"/>
<path d="" fill="#0FA1FF" transform="translate(0,0)"/>
<path d="" fill="#1392F4" transform="translate(0,0)"/>
<path d="" fill="#14A5FF" transform="translate(0,0)"/>
<path d="" fill="#1CA2F0" transform="translate(0,0)"/>
<path d="" fill="#1191F3" transform="translate(0,0)"/>
<path d="" fill="#0D9EF7" transform="translate(0,0)"/>
<path d="" fill="#1CA3F3" transform="translate(0,0)"/>
<path d="" fill="#2592E2" transform="translate(0,0)"/>
<path d="" fill="#15A3FA" transform="translate(0,0)"/>
</svg>
